<?xml version="1.0" ?><!DOCTYPE svg  PUBLIC '-//W3C//DTD SVG 1.1//EN'  'http://www.w3.org/Graphics/SVG/1.1/DTD/svg11.dtd'><svg enable-background="new 0 0 512 512" id="Layer_1" version="1.1" viewBox="0 0 512 512" xml:space="preserve" xmlns="http://www.w3.org/2000/svg" xmlns:xlink="http://www.w3.org/1999/xlink"><g><path d="M121,212.7c0-2.6,0-4.4,0-6.2c0-20.3,0.1-40.7-0.1-61c0-4.2,0.8-6.1,5.4-8.1c16.6-7.4,31.9-17,44.5-30.7   c16.5-17.9,27.7-38.4,33.4-61.9c2.8-11.4,4.8-23,6.8-34.6c0.7-3.7,1.9-5.6,6-5.5c18.2,0.2,36.3,0.2,54.5,0c4.8-0.1,4.5,2.7,4.5,5.8   c0.2,33.2,0.4,66.3,0.7,99.5c0,7.2,0,14.3,0,22.3c2.2,0,4.1,0,6,0c31.5,0,63,0.1,94.5-0.1c4.9,0,6.7,1.3,6.7,6.4   c-0.2,22.7-0.2,45.3,0,68c0,4.8-1.5,6.3-6.3,6.2c-31.2-0.2-62.3-0.1-93.5-0.1c-2.2,0-4.3,0-7,0c-0.1,1.9-0.3,3.5-0.3,5.1   c0.1,47.8,0.1,95.7,0.4,143.5c0.1,10.1,0.5,20.4,1.9,30.4c2.4,16.4,13,26.4,28,31.8c20,7.1,39.8,4.6,59-2.8   c10.6-4.1,20.5-10.2,30.9-15.4c0.1,0.6,0.4,2,0.4,3.4c0,23.5-0.1,47,0.1,70.5c0,3.9-1.9,5.3-5,6.8c-14.4,6.9-29.1,12.6-44.3,17.5   c-22.6,7.2-45.8,6.8-68.9,5.9c-34.6-1.4-64.2-14.7-87-40.9c-11.8-13.5-19.9-29.4-20.2-47.9c-0.8-61.1-1.2-122.3-1.8-183.4   c-0.1-6.5-0.2-13,0-19.5c0.1-3.8-1.4-4.9-5-4.8c-12.7,0.1-25.3,0.1-38,0.1C125.5,212.7,123.7,212.7,121,212.7z"/></g></svg>